<?xml version="1.0" encoding="utf-8"?>
<!-- Generator: Adobe Illustrator 24.3.0, SVG Export Plug-In . SVG Version: 6.00 Build 0)  -->
<svg version="1.1" id="education_educate_school_college_achievement_document_certificate"
	 xmlns="http://www.w3.org/2000/svg" xmlns:xlink="http://www.w3.org/1999/xlink" x="0px" y="0px" viewBox="0 0 81.8 81.8"
	 style="enable-background:new 0 0 81.8 81.8;" xml:space="preserve">
<style type="text/css">
	.st0{fill:#CCD8E5;}
	.st1{fill:#DFE8F4;}
	.st2{fill:#00BCC6;}
	.st3{fill:#00878E;}
</style>
<path id="Rectángulo_75" class="st0" d="M6.3,0H59c3.5,0,6.3,2.8,6.3,6.3v59.8c0,3.5-2.8,6.3-6.3,6.3H6.3c-3.5,0-6.3-2.8-6.3-6.3
	V6.3C0,2.8,2.8,0,6.3,0z"/>
<rect id="Rectángulo_76" x="15.1" y="21.5" class="st1" width="35.2" height="3.1"/>
<rect id="Rectángulo_77" x="15.1" y="30.3" class="st1" width="35.2" height="3.1"/>
<rect id="Rectángulo_78" x="15.1" y="39.1" class="st1" width="35.2" height="3.1"/>
<rect id="Rectángulo_79" x="15.1" y="47.9" class="st1" width="22" height="3.1"/>
<path id="Trazado_42" class="st2" d="M57.5,48.9v31.7c0,0.7,0.6,1.2,1.2,1.2c0.2,0,0.3,0,0.5-0.1l5.1-2.8c0.4-0.2,0.8-0.2,1.1,0
	l5.1,2.8c0.6,0.3,1.3,0,1.6-0.6c0.1-0.2,0.1-0.3,0.1-0.5V48.9H57.5z"/>
<path id="Trazado_43" class="st3" d="M65,39.1c9.3,0,16.8,7.5,16.8,16.8S74.3,72.8,65,72.8s-16.8-7.5-16.8-16.8c0,0,0,0,0,0
	C48.2,46.6,55.7,39.1,65,39.1z"/>
<circle id="Elipse_15" class="st2" cx="65" cy="55.9" r="9.7"/>
</svg>
