<svg id="user_interface_agent_usability_chart_graph_statistics_analytics" data-name="user, interface, agent, usability, chart, graph, statistics, analytics" xmlns="http://www.w3.org/2000/svg" width="76" height="76" viewBox="0 0 76 76">
  <rect id="Rectángulo_86" data-name="Rectángulo 86" width="76" height="76" rx="9.45" fill="#dfe8f4"/>
  <path id="Trazado_54" data-name="Trazado 54" d="M22.9,95.353H82.959a7.9,7.9,0,0,0,7.9-7.9V46.36L79.4,57.818,65.179,43.594,34.044,74.618l-8.9-8.9L15,75.866V87.451A7.9,7.9,0,0,0,22.9,95.353Z" transform="translate(-14.93 -19.423)" fill="#00878e"/>
  <path id="Trazado_55" data-name="Trazado 55" d="M90.861,45.016,79.4,56.475,65.116,42.188,34.044,73.275l-8.9-8.9L15,74.523v2.228L25.146,66.621l8.9,8.9L65.116,44.432,79.4,58.719,90.861,47.261Z" transform="translate(-14.93 -19.202)" fill="#00bcc6"/>
  <path id="Trazado_56" data-name="Trazado 56" d="M29.365,69.292A3.161,3.161,0,1,1,26.2,66.131,3.161,3.161,0,0,1,29.365,69.292Z" transform="translate(-16.194 -22.963)" fill="#00bcc6"/>
  <circle id="Elipse_18" data-name="Elipse 18" cx="3.129" cy="3.129" r="3.129" transform="translate(47.024 20.978)" fill="#00bcc6"/>
  <circle id="Elipse_19" data-name="Elipse 19" cx="3.129" cy="3.129" r="3.129" transform="translate(15.906 51.797)" fill="#00bcc6"/>
  <path id="Trazado_57" data-name="Trazado 57" d="M94,59.411a3.161,3.161,0,1,1-3.161-3.161A3.161,3.161,0,0,1,94,59.411Z" transform="translate(-26.348 -21.411)" fill="#00bcc6"/>
</svg>
