<svg id="user_interface_agent_usability_conversation_communication_chat_messenger" data-name="user, interface, agent, usability, conversation, communication, chat, messenger" xmlns="http://www.w3.org/2000/svg" width="90" height="70.497" viewBox="0 0 90 70.497">
  <rect id="Rect치ngulo_87" data-name="Rect치ngulo 87" width="61.2" height="43.987" rx="4.8" transform="translate(90 61.463) rotate(180)" fill="#00bcc6"/>
  <path id="Trazado_58" data-name="Trazado 58" d="M72.45,42.244V63.956a1.031,1.031,0,0,1-1.031,1.031H43.8v7.5H71.419a8.531,8.531,0,0,0,8.531-8.531V42.244Z" transform="translate(-15 -24.75)" fill="#00878e"/>
  <path id="Trazado_59" data-name="Trazado 59" d="M93.094,78.844v15.9a.506.506,0,0,1-.862.356L76.744,78.844Z" transform="translate(-15 -24.75)" fill="#00bcc6"/>
  <rect id="Rect치ngulo_88" data-name="Rect치ngulo 88" width="61.2" height="43.987" rx="4.8" fill="#dfe8f4"/>
  <path id="Trazado_60" data-name="Trazado 60" d="M48.581,42.244A4.781,4.781,0,0,0,43.8,47.025V68.738H71.419A4.781,4.781,0,0,0,76.2,63.956V42.244Z" transform="translate(-15 -24.75)" fill="#ccd8e5"/>
  <path id="Trazado_61" data-name="Trazado 61" d="M26.906,61.35V77.269a.506.506,0,0,0,.863.338L43.256,61.35Z" transform="translate(-15 -24.75)" fill="#dfe8f4"/>
  <path id="Trazado_62" data-name="Trazado 62" d="M34.688,46.744a1.687,1.687,0,1,1-1.669-1.669,1.669,1.669,0,0,1,1.669,1.669Z" transform="translate(-15 -24.75)" fill="#00878e"/>
  <path id="Trazado_63" data-name="Trazado 63" d="M47.287,46.744A1.688,1.688,0,1,1,45.6,45.075a1.687,1.687,0,0,1,1.688,1.669Z" transform="translate(-15 -24.75)" fill="#00878e"/>
  <path id="Trazado_64" data-name="Trazado 64" d="M59.869,46.744a1.687,1.687,0,1,1-.493-1.25,1.687,1.687,0,0,1,.493,1.25Z" transform="translate(-15 -24.75)" fill="#00878e"/>
</svg>
