<svg id="education_educate_school_college_class_whiteboard_blackboard_presentation" data-name="education, educate, school, college, class, whiteboard, blackboard, presentation" xmlns="http://www.w3.org/2000/svg" width="79.742" height="76.992" viewBox="0 0 79.742 76.992">
  <path id="Trazado_44" data-name="Trazado 44" d="M63.555,22.15v5.078a4.149,4.149,0,0,1-4.149,4.149h0a4.149,4.149,0,0,1-4.149-4.149V22.15A4.149,4.149,0,0,1,59.406,18h0A4.149,4.149,0,0,1,63.555,22.15Z" transform="translate(-19.575 -18.001)" fill="#00878e"/>
  <path id="Trazado_45" data-name="Trazado 45" d="M23.992,23.77H86.626a4.68,4.68,0,0,1,4.68,4.68V75.733H19.312V28.45a4.68,4.68,0,0,1,4.68-4.68Z" transform="translate(-15.478 -18.658)" fill="#dfe8f4"/>
  <rect id="Rectángulo_80" data-name="Rectángulo 80" width="71.994" height="7.468" transform="translate(3.834 49.606)" fill="#ccd8e5"/>
  <path id="Trazado_46" data-name="Trazado 46" d="M85.544,99.689,75.138,82.612a1.66,1.66,0,0,0-1.444-.813H69.91a1.66,1.66,0,0,0-1.444,2.556l3.1,5.112a1.66,1.66,0,0,1-1.444,2.556H42.112a1.66,1.66,0,0,1-1.444-2.556l3.1-5.112A1.66,1.66,0,0,0,42.328,81.8H38.544a1.66,1.66,0,0,0-1.444.813L26.694,99.689a1.66,1.66,0,0,0,1.46,2.572h3.784a1.66,1.66,0,0,0,1.444-.813L35.838,97.4a1.66,1.66,0,0,1,1.444-.813H74.956A1.66,1.66,0,0,1,76.4,97.4l2.456,4.049a1.66,1.66,0,0,0,1.444.813h3.784a1.66,1.66,0,0,0,1.46-2.572Z" transform="translate(-16.288 -25.272)" fill="#00878e"/>
  <path id="Trazado_47" data-name="Trazado 47" d="M90.5,88.13H19.134a4.132,4.132,0,0,1-4.149-4.149h0a4.149,4.149,0,0,1,4.149-4.149H90.5a4.149,4.149,0,0,1,4.149,4.149h0A4.132,4.132,0,0,1,90.5,88.13Z" transform="translate(-14.985 -25.048)" fill="#00bcc6"/>
  <rect id="Rectángulo_81" data-name="Rectángulo 81" width="25.857" height="3.336" transform="translate(26.903 22.521)" fill="#fff"/>
  <rect id="Rectángulo_82" data-name="Rectángulo 82" width="25.857" height="3.336" transform="translate(26.903 30.106)" fill="#fff"/>
  <rect id="Rectángulo_83" data-name="Rectángulo 83" width="11.767" height="3.336" transform="translate(26.903 37.69)" fill="#fff"/>
  <path id="Trazado_48" data-name="Trazado 48" d="M67.459,67.893h0a2.29,2.29,0,0,1,0-3.22L96.652,35.5a2.29,2.29,0,0,1,3.319,0h0a2.29,2.29,0,0,1,0,3.22L70.679,67.893a2.29,2.29,0,0,1-3.22,0Z" transform="translate(-20.89 -19.914)" fill="#00878e"/>
  <path id="Trazado_49" data-name="Trazado 49" d="M71.363,64.135l-3.884,3.884a2.29,2.29,0,0,0,3.22,3.22l3.867-3.867Z" transform="translate(-20.91 -23.259)" fill="#00bcc6"/>
</svg>
