<?xml version="1.0" encoding="utf-8"?>
<!-- Generator: Adobe Illustrator 25.0.0, SVG Export Plug-In . SVG Version: 6.00 Build 0)  -->
<svg version="1.1" id="Capa_1" xmlns="http://www.w3.org/2000/svg" xmlns:xlink="http://www.w3.org/1999/xlink" x="0px" y="0px"
	 viewBox="0 0 4569.9 216.5" style="enable-background:new 0 0 4569.9 216.5;" xml:space="preserve">
<style type="text/css">
	.st0{fill:#FFFFFF;}
</style>
<path class="st0" d="M0.3,0v216.5h546h79.6h411.8c46.9,0,62.9-2.7,77.6-7.3c73.4-22.9,295.9-92.4,311.3-98.2
	c18.4-6.9,27.6-10.6,37.6-13.2c6.8-1.6,13.9-2.5,20.9-2.6h39.7c0,0,1469.3,4.8,1557.4,3.2c36.6-0.6,35.8,1.9,63.4-16
	c18-11.7,59.1-42.2,83.9-59.1c12.8-8.7,14.2-10.6,65.2-10.6h674.2h53.8h547V0H0.3z"/>
</svg>
