<?xml version="1.0" encoding="utf-8"?>
<!-- Generator: Adobe Illustrator 24.3.0, SVG Export Plug-In . SVG Version: 6.00 Build 0)  -->
<svg version="1.1" id="Capa_1" xmlns="http://www.w3.org/2000/svg" xmlns:xlink="http://www.w3.org/1999/xlink" x="0px" y="0px"
	 viewBox="0 0 4569.9 498.6" style="enable-background:new 0 0 4569.9 498.6;" xml:space="preserve">
<style type="text/css">
	.st0{fill:none;}
	.st1{fill:#C42C2C;}
	.st2{fill:#FFFFFF;}
</style>
<path class="st0" d="M1571,880.3H734.1l821.2,1.9C1555.3,882.2,1564,882.5,1571,880.3z"/>
<polygon class="st1" points="573.2,879.9 573.2,880.3 734.1,880.3 "/>
<path class="st2" d="M4569.9,48.2V0H0v498.6h548.8v-0.4l160.9,0.4h836.9c0.1,0,0.1,0,0.2,0c4.5-1.5,8.7-3.9,12.3-7l75.9-71.6
	c3.1-2.6,6.5-4.8,10.2-6.4c5.5-2.2,7.3-2.8,19.8-2.6c45.4,0.8,171.1,1.7,171.1,1.7s12.7,0.7,18.4-2.9s9.2-9.9,9.2-9.9
	s159-262.2,192.1-334.3c5.7-12.5,9.1-19.9,30.9-19.9L3952,48.2l0,0H4569.9z"/>
</svg>
