<?xml version="1.0" encoding="utf-8"?>
<!-- Generator: Adobe Illustrator 25.0.0, SVG Export Plug-In . SVG Version: 6.00 Build 0)  -->
<svg version="1.1" id="Capa_1" xmlns="http://www.w3.org/2000/svg" xmlns:xlink="http://www.w3.org/1999/xlink" x="0px" y="0px"
	 viewBox="0 0 461 462.3" style="enable-background:new 0 0 461 462.3;" xml:space="preserve">
<style type="text/css">
	.st0{fill:#FFD0C7;}
	.st1{opacity:0.5;}
	.st2{clip-path:url(#SVGID_2_);}
	.st3{clip-path:url(#SVGID_4_);}
	.st4{clip-path:url(#SVGID_6_);}
	.st5{fill:#FFFFFF;}
	.st6{fill:#FFC5B6;}
	.st7{opacity:0.8;fill:#FFFFFF;enable-background:new    ;}
</style>
<g id="Layer_2_1_">
	
		<image style="overflow:visible;enable-background:new    ;" width="458" height="457" xlink:href="18E679E0F07104.png"  transform="matrix(0.2617 0 0 0.2617 234.5082 165.2239)">
	</image>
	<path class="st0" d="M214.3,69.4l0.1,0.1c0.5,0.1,1.1,0.1,1.7,0.2L214.3,69.4z"/>
	<g class="st1">
		<g>
			<defs>
				<path id="SVGID_1_" d="M158.5,204.4h272.2v146.1c0,15-12.2,27.2-27.2,27.2h-13.6v8.5c0,2.8-2.3,5.1-5.1,5.1h-44.2
					c-2.8,0-5.1-2.3-5.1-5.1v-8.5h-81.7v8.5c0,2.8-2.3,5.1-5.1,5.1h-44.2c-2.8,0-5.1-2.3-5.1-5.1v-8.5h-13.6
					c-15-0.1-27.1-12.2-27.2-27.2V204.4z"/>
			</defs>
			<clipPath id="SVGID_2_">
				<use xlink:href="#SVGID_1_"  style="overflow:visible;"/>
			</clipPath>
			<g class="st2">
				<g>
					<defs>
						<rect id="SVGID_3_" x="155.7" y="201.7" width="277.7" height="192.4"/>
					</defs>
					<clipPath id="SVGID_4_">
						<use xlink:href="#SVGID_3_"  style="overflow:visible;"/>
					</clipPath>
					<g class="st3">
						<g>
							<defs>
								<rect id="SVGID_5_" x="155.7" y="201.7" width="277.7" height="192.4"/>
							</defs>
							<clipPath id="SVGID_6_">
								<use xlink:href="#SVGID_5_"  style="overflow:visible;"/>
							</clipPath>
							<g class="st4">
								
									<image style="overflow:visible;enable-background:new    ;" width="1062" height="736" xlink:href="18E679E0F07105.png"  transform="matrix(0.2617 0 0 0.2617 155.6025 201.5991)">
								</image>
							</g>
						</g>
					</g>
				</g>
			</g>
		</g>
		<path class="st5" d="M158.4,205h268.1c1.2,0,2.4,0.1,3.6,0c0.2,0,0.3,0,0.5,0l-0.7-0.5V350c0,8.5-3.6,16.5-10.4,21.8
			c-4.6,3.5-10.2,5.4-16,5.4c-3.4,0-6.8,0-10.3,0h-3.3c-0.3,0-0.9,0.3-0.9,0.6v7.4c0,1.4,0,2.7-0.9,3.9c-0.8,1.1-2.2,1.7-3.5,1.7
			c-3.7,0.1-7.5,0-11.2,0h-32.1c-3,0-5-2-5.1-5c0-2.7,0-5.4,0-8.1c0-0.4-0.4-0.5-0.7-0.5h-81.7c-0.3,0-0.9,0.3-0.9,0.6v7.4
			c0,1.4,0,2.7-0.9,3.9c-0.8,1.1-2.2,1.7-3.5,1.7c-3.7,0.1-7.5,0-11.2,0h-32.1c-3,0-5.1-2-5.1-5c0-2.7,0-5.4,0-8.1
			c0-0.4-0.4-0.5-0.7-0.5h-9.8c-4.1,0-8.2,0-12.2-1.4c-10.8-3.8-18-13.9-18.1-25.3c0-7.6,0-15.3,0-22.9V213.2c0-2.8,0.1-5.6,0-8.4
			c0-0.1,0-0.3,0-0.4c0-0.8-1.6-0.6-1.6,0.1v119.8c0,8.7,0,17.3,0,26c-0.1,15.4,12.3,28,27.7,28.1c0.1,0,0.2,0,0.3,0
			c3.4,0,6.9,0,10.3,0h3.3l-0.7-0.5v7.8c0,3.5,2.2,6.3,5.9,6.3s7.3,0,10.9,0c11,0,22,0.1,33,0c3.4,0,6.2-2.4,6.3-5.9
			c0.1-2.8,0-5.6,0-8.4l-0.9,0.6h81.6l-0.7-0.5v7.8c0,3.5,2.2,6.3,5.9,6.3s7.3,0,10.9,0c11,0,22,0.1,33,0c3.4,0,6.2-2.4,6.3-5.9
			c0.1-2.8,0-5.6,0-8.4l-0.9,0.6h9.8c4.1,0,8.1,0,12.1-1.3c11.2-3.5,19.4-14,19.8-25.8c0.2-7.3,0-14.7,0-22.1V213.4
			c0-2.9,0.1-5.8,0-8.6c0-0.1,0-0.3,0-0.4c0-0.4-0.4-0.5-0.7-0.5H169.5c-3.5,0-7.1-0.1-10.6,0h-0.5C157.6,203.8,157.3,205,158.4,205
			z"/>
	</g>
	<path class="st6" d="M451.6,113.6h-55.5c0,0,1-36-6-46.5c-3.9-5.8-11.7-8-19.2-8H219c-7.5,0-15.4,2.2-19.3,8
		c-7,10.5-6.8,46.5-6.8,46.5h-52c-9.7,0-9.7,7.2-9.7,7.2V193c0,15,12.2,27.2,27.3,27.2h272.2c15,0,27.2-12.2,27.2-27.2v-72.2
		C457.9,120.9,457.9,113.6,451.6,113.6z M357.6,113.6H231.5c0,0-1.8-27.2,5-27.2c40.4-0.4,74.5-0.2,116.3,0
		C359.5,86.4,357.6,113.6,357.6,113.6L357.6,113.6z"/>
	<path class="st7" d="M291.9,188.3h5.2c4,0,7.3,3.3,7.3,7.3v49.2c0,4-3.3,7.3-7.3,7.3h-5.2c-4,0-7.3-3.3-7.3-7.3v-49.2
		C284.6,191.6,287.9,188.3,291.9,188.3z"/>
	<path class="st7" d="M265.9,196.1H129.4v48.4h29.3c1.7,0,3.2-1,4-2.5l9.6-19.3c0.8-1.5,2.3-2.5,4-2.5h17c2.5,0,4.4,2,4.4,4.5
		c0,0,0,0,0,0V240c0,2.5,2,4.4,4.4,4.4c0,0,0,0,0,0h15.3c2.5,0,4.5-2,4.5-4.4c0,0,0,0,0,0v-15.3c0-2.5,2-4.4,4.4-4.4h0h15.3
		c2.5,0,4.4,2,4.4,4.4c0,0,0,0,0,0V240c0,2.5,2,4.4,4.4,4.4c0,0,0,0,0,0h15.3c2.5,0,4.4-2,4.4-4.4c0,0,0,0,0,0v-39.5
		C270.3,198.1,268.3,196.1,265.9,196.1C265.9,196.1,265.9,196.1,265.9,196.1z"/>
	<path class="st5" d="M74.6,147.7C34.5,147.7,2,180.2,2,220.3s32.5,72.6,72.6,72.6c40.1,0,72.6-32.5,72.6-72.6
		C147.2,180.2,114.7,147.7,74.6,147.7C74.6,147.7,74.6,147.7,74.6,147.7z M40.1,235.9c-8.6,0-15.6-7-15.6-15.6
		c0-8.6,7-15.6,15.6-15.6c8.6,0,15.6,7,15.6,15.6l0,0C55.7,228.9,48.7,235.9,40.1,235.9C40.1,235.9,40.1,235.9,40.1,235.9z"/>
</g>
</svg>
