<?xml version="1.0" encoding="utf-8"?>
<!-- Generator: Adobe Illustrator 25.0.0, SVG Export Plug-In . SVG Version: 6.00 Build 0)  -->
<svg version="1.1" id="Capa_1" xmlns="http://www.w3.org/2000/svg" xmlns:xlink="http://www.w3.org/1999/xlink" x="0px" y="0px"
	 viewBox="0 0 461 462.3" style="enable-background:new 0 0 461 462.3;" xml:space="preserve">
<style type="text/css">
	.st0{fill:#FFC5B6;}
	.st1{opacity:0.5;}
	.st2{clip-path:url(#SVGID_2_);}
	.st3{clip-path:url(#SVGID_4_);}
	.st4{clip-path:url(#SVGID_6_);}
	.st5{fill:none;stroke:#FFFFFF;stroke-width:2.36;stroke-miterlimit:10;}
	.st6{fill:#FFFFFF;}
	.st7{opacity:0.7;fill:#FFFFFF;enable-background:new    ;}
	.st8{opacity:0.7;enable-background:new    ;}
</style>
<g id="Layer_2_1_">
	<path class="st0" d="M461,149.3c0,49.5-40.1,89.6-89.6,89.6c0,0,0,0,0,0c-4.4,0-8.8-0.3-13.2-1c-0.6-0.1-1.2-0.2-1.7-0.3
		c0,0-4.2-34.4-26.1-64.2c-20.9-28.5-46.8-41.7-46.8-41.7c0.1-0.6,0.2-1.2,0.4-1.7c10.7-48.3,58.5-78.8,106.8-68.2
		C431.8,70.9,461,107.3,461,149.3z"/>
	
		<image style="overflow:visible;enable-background:new    ;" width="419" height="531" xlink:href="29BC93550D1996.png"  transform="matrix(0.2785 0 0 0.2785 260.9373 110.858)">
	</image>
	<circle class="st0" cx="117.2" cy="59.8" r="56.4"/>
	<g class="st1">
		<g>
			<defs>
				<circle id="SVGID_1_" cx="210.9" cy="257.6" r="143.9"/>
			</defs>
			<clipPath id="SVGID_2_">
				<use xlink:href="#SVGID_1_"  style="overflow:visible;"/>
			</clipPath>
			<g class="st2">
				<g>
					<defs>
						<rect id="SVGID_3_" x="64" y="110.7" width="293.7" height="293.7"/>
					</defs>
					<clipPath id="SVGID_4_">
						<use xlink:href="#SVGID_3_"  style="overflow:visible;"/>
					</clipPath>
					<g class="st3">
						<g>
							<defs>
								<rect id="SVGID_5_" x="64" y="110.7" width="293.7" height="293.7"/>
							</defs>
							<clipPath id="SVGID_6_">
								<use xlink:href="#SVGID_5_"  style="overflow:visible;"/>
							</clipPath>
							<g class="st4">
								
									<image style="overflow:visible;enable-background:new    ;" width="1055" height="1055" xlink:href="29BC93550D199A.png"  transform="matrix(0.2785 0 0 0.2785 64.0026 110.5794)">
								</image>
							</g>
						</g>
					</g>
				</g>
			</g>
		</g>
		<circle class="st5" cx="210.9" cy="257.6" r="143.9"/>
	</g>
	<circle class="st6" cx="210.9" cy="241.5" r="37.3"/>
	<path class="st7" d="M263.3,294v10.3c0,3.7-3,6.6-6.6,6.6c0,0,0,0,0,0H165c-3.7,0-6.6-3-6.6-6.6c0,0,0,0,0,0V294
		c0-15,23.5-27.1,52.5-27.1S263.3,279.1,263.3,294z"/>
	<circle class="st6" cx="373.7" cy="147.6" r="17.4"/>
	<path class="st7" d="M398.2,172.1v4.8c0,1.7-1.4,3.1-3.1,3.1h-42.8c-1.7,0-3.1-1.4-3.1-3.1v0v-4.8c0-7,11-12.6,24.5-12.6
		C387.2,159.5,398.2,165.2,398.2,172.1z"/>
	<circle class="st6" cx="117.2" cy="54.9" r="11.3"/>
	<path class="st7" d="M133.1,70.8v3.1c0,1.1-0.9,2-2,2h-27.8c-1.1,0-2-0.9-2-2v-3.1c0-4.5,7.1-8.2,15.9-8.2S133.1,66.3,133.1,70.8z"
		/>
	<circle class="st0" cx="66.9" cy="391.1" r="66.9"/>
	<g class="st8">
		<path class="st6" d="M358.9,107.7c-0.7,0-1.5-0.3-2-0.8c-43.7-42.8-103.7-64.2-164.7-58.8c-1.6,0.1-3-1-3.1-2.6
			c-0.1-1.6,1-3,2.6-3.1C251,37,309.4,56.5,353.6,95.8l-3.7-13.9c-0.4-1.5,0.5-3.1,2.1-3.5c1.6-0.4,3.1,0.5,3.5,2.1l6.2,23.6
			c0.3,1.3-0.2,2.6-1.3,3.2C359.9,107.6,359.4,107.7,358.9,107.7z"/>
	</g>
	<path class="st6" d="M68.4,120.3c1-1.2,0.8-3.1-0.4-4.1c-1.2-1-3.1-0.8-4.1,0.4c-21.3,25.9-36.4,57-43.8,89.7
		c-7.1,31.6-6.9,64.8,0.5,96.3c-1.7,1.3-2.8,3.4-2.8,5.7c0,4,3.3,7.3,7.3,7.3c4,0,7.3-3.3,7.3-7.3c0-3.7-2.7-6.7-6.2-7.2
		c-7.1-30.6-7.3-62.9-0.4-93.6C33,175.7,47.7,145.5,68.4,120.3z"/>
	<path class="st6" d="M415.1,282.1c0-4-3.3-7.3-7.3-7.3s-7.3,3.3-7.3,7.3c0,2.8,1.6,5.2,3.9,6.5c-1.9,19.8-7.9,39.2-17.9,58
		c-10.7,20-25.5,38.3-43.9,54.2c-18.4,15.9-39.3,28.6-62.3,37.6c-23.8,9.4-48.4,14.4-73.4,15c-21.9,0.5-43.6-2.3-64.5-8.5
		c-21-6.2-40.8-15.5-58.9-27.8c-1-0.7-2.4-0.7-3.4,0.1c-1,0.8-1.4,2.1-1,3.3l9.7,27c0.5,1.5,2.2,2.3,3.7,1.8
		c1.5-0.5,2.3-2.2,1.8-3.7l-6.8-18.9c16.6,10.3,34.5,18.3,53.2,23.8c19.9,5.8,40.4,8.8,61.1,8.8c1.7,0,3.4,0,5.2-0.1
		c25.6-0.6,51-5.7,75.4-15.4c23.5-9.3,45-22.3,63.9-38.6c18.9-16.4,34.2-35.2,45.2-55.8c10.4-19.4,16.6-39.7,18.5-60.3
		C413.1,288,415.1,285.3,415.1,282.1z"/>
	<g>
		<path class="st6" d="M109.9,419c-0.1,0-0.1,0-0.2,0l-14.4-1.1c-1.6-0.1-2.8-1.5-2.7-3.1c0.1-1.6,1.5-2.8,3.1-2.7l14.4,1.1
			c1.6,0.1,2.8,1.5,2.7,3.1C112.7,417.8,111.4,419,109.9,419z"/>
	</g>
	<g class="st8">
		<path class="st6" d="M346,111c-0.2,0-0.5,0-0.7-0.1l-15.5-3.9c-1.6-0.4-2.5-2-2.1-3.5c0.4-1.6,2-2.5,3.5-2.1l15.5,3.9
			c1.6,0.4,2.5,2,2.1,3.5C348.5,110.2,347.3,111,346,111z"/>
	</g>
	<circle class="st6" cx="66.9" cy="378.3" r="15.6"/>
	<path class="st7" d="M88.8,400.2v4.3c0,1.5-1.2,2.8-2.8,2.8c0,0,0,0,0,0H47.8c-1.5,0-2.8-1.2-2.8-2.8l0,0v-4.3
		c0-6.2,9.8-11.3,21.9-11.3S88.8,394,88.8,400.2z"/>
</g>
</svg>
