<?xml version="1.0" encoding="utf-8"?>
<!-- Generator: Adobe Illustrator 25.0.0, SVG Export Plug-In . SVG Version: 6.00 Build 0)  -->
<svg version="1.1" id="Capa_1" xmlns="http://www.w3.org/2000/svg" xmlns:xlink="http://www.w3.org/1999/xlink" x="0px" y="0px"
	 viewBox="0 0 461 462.3" style="enable-background:new 0 0 461 462.3;" xml:space="preserve">
<style type="text/css">
	.st0{opacity:0.8;enable-background:new    ;}
	.st1{fill:#FFFFFF;}
	.st2{opacity:0.5;}
	.st3{clip-path:url(#SVGID_2_);}
	.st4{clip-path:url(#SVGID_4_);}
	.st5{clip-path:url(#SVGID_6_);}
	.st6{clip-path:url(#SVGID_8_);}
	.st7{clip-path:url(#SVGID_10_);}
	.st8{clip-path:url(#SVGID_12_);}
	.st9{clip-path:url(#SVGID_14_);}
	.st10{clip-path:url(#SVGID_16_);}
	.st11{clip-path:url(#SVGID_18_);}
	.st12{clip-path:url(#SVGID_20_);}
	.st13{clip-path:url(#SVGID_22_);}
	.st14{clip-path:url(#SVGID_24_);}
	.st15{clip-path:url(#SVGID_26_);}
	.st16{clip-path:url(#SVGID_28_);}
	.st17{clip-path:url(#SVGID_30_);}
	.st18{clip-path:url(#SVGID_32_);}
	.st19{clip-path:url(#SVGID_34_);}
	.st20{clip-path:url(#SVGID_36_);}
	.st21{clip-path:url(#SVGID_38_);}
	.st22{clip-path:url(#SVGID_40_);}
	.st23{clip-path:url(#SVGID_42_);}
	.st24{clip-path:url(#SVGID_44_);}
	.st25{clip-path:url(#SVGID_46_);}
	.st26{clip-path:url(#SVGID_48_);}
	.st27{clip-path:url(#SVGID_50_);}
	.st28{clip-path:url(#SVGID_52_);}
	.st29{clip-path:url(#SVGID_54_);}
	.st30{clip-path:url(#SVGID_56_);}
	.st31{clip-path:url(#SVGID_58_);}
	.st32{clip-path:url(#SVGID_60_);}
	.st33{opacity:0.87;enable-background:new    ;}
	.st34{opacity:0.7;enable-background:new    ;}
</style>
<g id="Layer_2_1_">
	<g class="st0">
		<ellipse class="st1" cx="332.3" cy="30.5" rx="95.5" ry="29.7"/>
		<path class="st1" d="M332.3,61.1c-25.6,0-49.6-3.1-67.8-8.7c-18.4-5.7-28.6-13.5-28.6-21.8c0-8.3,10.1-16.1,28.6-21.8
			C282.6,3.1,306.7,0,332.3,0c25.6,0,49.6,3.1,67.8,8.7c18.4,5.7,28.6,13.5,28.6,21.8c0,8.3-10.1,16.1-28.6,21.8
			C381.9,58,357.8,61.1,332.3,61.1z M332.3,1.7c-25.4,0-49.3,3.1-67.3,8.7c-17.4,5.4-27.4,12.8-27.4,20.2s10,14.8,27.4,20.2
			c18,5.6,41.8,8.7,67.3,8.7c25.4,0,49.3-3.1,67.3-8.7c17.4-5.4,27.4-12.8,27.4-20.2s-10-14.8-27.4-20.2
			C381.6,4.8,357.7,1.7,332.3,1.7z"/>
	</g>
	<g class="st2">
		<g>
			<defs>
				<path id="SVGID_1_" d="M427.7,30.5c0,16.4-42.7,29.7-95.5,29.7S236.8,47,236.8,30.5v42.9c0,16.4,42.7,29.7,95.5,29.7
					s95.5-13.3,95.5-29.7V30.5z"/>
			</defs>
			<clipPath id="SVGID_2_">
				<use xlink:href="#SVGID_1_"  style="overflow:visible;"/>
			</clipPath>
			<g class="st3">
				<g>
					<defs>
						<rect id="SVGID_3_" x="233.7" y="27.5" width="197" height="78.7"/>
					</defs>
					<clipPath id="SVGID_4_">
						<use xlink:href="#SVGID_3_"  style="overflow:visible;"/>
					</clipPath>
					<g class="st4">
						<g>
							<defs>
								<rect id="SVGID_5_" x="233.7" y="27.5" width="197" height="78.7"/>
							</defs>
							<clipPath id="SVGID_6_">
								<use xlink:href="#SVGID_5_"  style="overflow:visible;"/>
							</clipPath>
							<g class="st5">
								
									<image style="overflow:visible;enable-background:new    ;" width="674" height="270" xlink:href="2151869AFEC54F.png"  transform="matrix(0.2928 0 0 0.2928 233.5286 27.3957)">
								</image>
							</g>
						</g>
					</g>
				</g>
			</g>
		</g>
		<g>
			<path class="st1" d="M332.3,104.4c-54.2,0-96.7-13.6-96.7-31V30.5c0-0.7,0.6-1.3,1.3-1.3s1.3,0.6,1.3,1.3
				c0,7.2,9.9,14.4,27.1,19.8c17.9,5.6,41.8,8.6,67.1,8.6c25.4,0,49.2-3.1,67.1-8.6c17.2-5.4,27.1-12.6,27.1-19.8
				c0-0.7,0.6-1.3,1.3-1.3s1.3,0.6,1.3,1.3v42.9C429,90.8,386.5,104.4,332.3,104.4z M238.1,37.8v35.7c0,7.2,9.9,14.4,27.1,19.8
				c17.9,5.6,41.8,8.6,67.1,8.6c25.4,0,49.2-3.1,67.1-8.6c17.2-5.4,27.1-12.6,27.1-19.8V37.8c-9.9,13.8-47.7,23.8-94.2,23.8
				C285.8,61.5,248,51.5,238.1,37.8z"/>
		</g>
	</g>
	<g class="st2">
		<g>
			<defs>
				<path id="SVGID_7_" d="M427.7,73.5c0,16.4-42.7,29.7-95.5,29.7s-95.5-13.3-95.5-29.7v42.9c0,16.4,42.7,29.7,95.5,29.7
					s95.5-13.3,95.5-29.7V73.5z"/>
			</defs>
			<clipPath id="SVGID_8_">
				<use xlink:href="#SVGID_7_"  style="overflow:visible;"/>
			</clipPath>
			<g class="st6">
				<g>
					<defs>
						<rect id="SVGID_9_" x="233.7" y="70.4" width="197" height="78.7"/>
					</defs>
					<clipPath id="SVGID_10_">
						<use xlink:href="#SVGID_9_"  style="overflow:visible;"/>
					</clipPath>
					<g class="st7">
						<g>
							<defs>
								<rect id="SVGID_11_" x="233.7" y="70.4" width="197" height="78.7"/>
							</defs>
							<clipPath id="SVGID_12_">
								<use xlink:href="#SVGID_11_"  style="overflow:visible;"/>
							</clipPath>
							<g class="st8">
								
									<image style="overflow:visible;enable-background:new    ;" width="674" height="270" xlink:href="2151869AFEC54D.png"  transform="matrix(0.2928 0 0 0.2928 233.5286 70.1405)">
								</image>
							</g>
						</g>
					</g>
				</g>
			</g>
		</g>
		<g>
			<path class="st1" d="M332.3,147.3c-54.2,0-96.7-13.6-96.7-31V73.5c0-0.7,0.6-1.3,1.3-1.3s1.3,0.6,1.3,1.3
				c0,7.2,9.9,14.4,27.1,19.8c17.9,5.6,41.8,8.6,67.1,8.6c25.4,0,49.2-3.1,67.1-8.6c17.2-5.4,27.1-12.6,27.1-19.8
				c0-0.7,0.6-1.3,1.3-1.3s1.3,0.6,1.3,1.3v42.9C429,133.7,386.5,147.3,332.3,147.3z M238.1,80.7v35.7c0,7.2,9.9,14.4,27.1,19.8
				c17.9,5.6,41.8,8.6,67.1,8.6c25.4,0,49.2-3.1,67.1-8.6c17.2-5.4,27.1-12.6,27.1-19.8V80.7c-9.9,13.8-47.7,23.8-94.2,23.8
				C285.8,104.4,248,94.4,238.1,80.7z"/>
		</g>
	</g>
	<g class="st2">
		<g>
			<defs>
				<path id="SVGID_13_" d="M427.7,118.1c0,16.4-42.7,29.7-95.5,29.7s-95.5-13.3-95.5-29.7V161c0,16.4,42.7,29.7,95.5,29.7
					s95.5-13.3,95.5-29.7V118.1z"/>
			</defs>
			<clipPath id="SVGID_14_">
				<use xlink:href="#SVGID_13_"  style="overflow:visible;"/>
			</clipPath>
			<g class="st9">
				<g>
					<defs>
						<rect id="SVGID_15_" x="233.7" y="115" width="197" height="78.7"/>
					</defs>
					<clipPath id="SVGID_16_">
						<use xlink:href="#SVGID_15_"  style="overflow:visible;"/>
					</clipPath>
					<g class="st10">
						<g>
							<defs>
								<rect id="SVGID_17_" x="233.7" y="115" width="197" height="78.7"/>
							</defs>
							<clipPath id="SVGID_18_">
								<use xlink:href="#SVGID_17_"  style="overflow:visible;"/>
							</clipPath>
							<g class="st11">
								
									<image style="overflow:visible;enable-background:new    ;" width="674" height="270" xlink:href="2151869AFEC553.png"  transform="matrix(0.2928 0 0 0.2928 233.5286 114.9347)">
								</image>
							</g>
						</g>
					</g>
				</g>
			</g>
		</g>
		<g>
			<path class="st1" d="M332.3,192c-54.2,0-96.7-13.6-96.7-31v-42.9c0-0.7,0.6-1.3,1.3-1.3s1.3,0.6,1.3,1.3
				c0,15.4,43.1,28.4,94.2,28.4c25.4,0,49.2-3.1,67.1-8.6c17.2-5.4,27.1-12.6,27.1-19.8c0-0.7,0.6-1.3,1.3-1.3s1.3,0.6,1.3,1.3V161
				C429,178.4,386.5,192,332.3,192z M238.1,125.3V161c0,7.2,9.9,14.4,27.1,19.8c17.9,5.6,41.8,8.6,67.1,8.6
				c25.4,0,49.2-3.1,67.1-8.6c17.2-5.4,27.1-12.6,27.1-19.8v-35.7c-9.9,13.8-47.7,23.8-94.2,23.8C285.8,149.1,248,139.1,238.1,125.3
				z"/>
		</g>
	</g>
	<g class="st0">
		<ellipse class="st1" cx="123.9" cy="119.5" rx="95.5" ry="29.7"/>
		<path class="st1" d="M123.9,150c-25.6,0-49.6-3.1-67.8-8.7c-18.4-5.7-28.6-13.5-28.6-21.8c0-8.3,10.1-16.1,28.6-21.8
			c18.1-5.6,42.2-8.7,67.8-8.7s49.6,3.1,67.8,8.7c18.4,5.7,28.6,13.5,28.6,21.8c0,8.3-10.1,16.1-28.6,21.8
			C173.5,146.9,149.5,150,123.9,150z M123.9,90.6c-25.4,0-49.3,3.1-67.3,8.7c-17.4,5.4-27.4,12.8-27.4,20.2c0,7.4,10,14.8,27.4,20.2
			c18,5.6,41.8,8.7,67.3,8.7s49.3-3.1,67.3-8.7c17.4-5.4,27.4-12.8,27.4-20.2c0-7.4-10-14.8-27.4-20.2
			C173.2,93.7,149.3,90.6,123.9,90.6z"/>
	</g>
	<g class="st2">
		<g>
			<defs>
				<path id="SVGID_19_" d="M219.3,119.5c0,16.4-42.7,29.7-95.5,29.7s-95.5-13.3-95.5-29.7v42.9c0,16.4,42.7,29.7,95.5,29.7
					s95.5-13.3,95.5-29.7V119.5z"/>
			</defs>
			<clipPath id="SVGID_20_">
				<use xlink:href="#SVGID_19_"  style="overflow:visible;"/>
			</clipPath>
			<g class="st12">
				<g>
					<defs>
						<rect id="SVGID_21_" x="25.3" y="116.4" width="197" height="78.7"/>
					</defs>
					<clipPath id="SVGID_22_">
						<use xlink:href="#SVGID_21_"  style="overflow:visible;"/>
					</clipPath>
					<g class="st13">
						<g>
							<defs>
								<rect id="SVGID_23_" x="25.3" y="116.4" width="197" height="78.7"/>
							</defs>
							<clipPath id="SVGID_24_">
								<use xlink:href="#SVGID_23_"  style="overflow:visible;"/>
							</clipPath>
							<g class="st14">
								
									<image style="overflow:visible;enable-background:new    ;" width="674" height="269" xlink:href="2151869AFEC555.png"  transform="matrix(0.2928 0 0 0.2928 25.0746 116.3985)">
								</image>
							</g>
						</g>
					</g>
				</g>
			</g>
		</g>
		<g>
			<path class="st1" d="M123.9,193.3c-54.2,0-96.7-13.6-96.7-31v-42.9c0-0.7,0.6-1.3,1.3-1.3s1.3,0.6,1.3,1.3
				c0,7.2,9.9,14.4,27.1,19.8c17.9,5.6,41.8,8.6,67.1,8.6c25.4,0,49.2-3.1,67.1-8.6c17.2-5.4,27.1-12.6,27.1-19.8
				c0-0.7,0.6-1.3,1.3-1.3c0.7,0,1.3,0.6,1.3,1.3v42.9C220.6,179.7,178.1,193.3,123.9,193.3z M29.7,126.7v35.7
				c0,7.2,9.9,14.4,27.1,19.8c17.9,5.6,41.8,8.6,67.1,8.6c25.4,0,49.2-3.1,67.1-8.6c17.2-5.4,27.1-12.6,27.1-19.8v-35.7
				c-9.9,13.8-47.7,23.8-94.2,23.8C77.4,150.4,39.6,140.4,29.7,126.7z"/>
		</g>
	</g>
	<g class="st2">
		<g>
			<defs>
				<path id="SVGID_25_" d="M219.3,162.4c0,16.4-42.7,29.7-95.5,29.7s-95.5-13.3-95.5-29.7v42.9c0,16.4,42.7,29.7,95.5,29.7
					s95.5-13.3,95.5-29.7V162.4z"/>
			</defs>
			<clipPath id="SVGID_26_">
				<use xlink:href="#SVGID_25_"  style="overflow:visible;"/>
			</clipPath>
			<g class="st15">
				<g>
					<defs>
						<rect id="SVGID_27_" x="25.3" y="159.3" width="197" height="78.7"/>
					</defs>
					<clipPath id="SVGID_28_">
						<use xlink:href="#SVGID_27_"  style="overflow:visible;"/>
					</clipPath>
					<g class="st16">
						<g>
							<defs>
								<rect id="SVGID_29_" x="25.3" y="159.3" width="197" height="78.7"/>
							</defs>
							<clipPath id="SVGID_30_">
								<use xlink:href="#SVGID_29_"  style="overflow:visible;"/>
							</clipPath>
							<g class="st17">
								
									<image style="overflow:visible;enable-background:new    ;" width="674" height="270" xlink:href="2151869AFEC557.png"  transform="matrix(0.2928 0 0 0.2928 25.0746 159.1433)">
								</image>
							</g>
						</g>
					</g>
				</g>
			</g>
		</g>
		<g>
			<path class="st1" d="M123.9,236.3c-54.2,0-96.7-13.6-96.7-31v-42.9c0-0.7,0.6-1.3,1.3-1.3s1.3,0.6,1.3,1.3
				c0,7.2,9.9,14.4,27.1,19.8c17.9,5.6,41.8,8.6,67.1,8.6c25.4,0,49.2-3.1,67.1-8.6c17.2-5.4,27.1-12.6,27.1-19.8
				c0-0.7,0.6-1.3,1.3-1.3c0.7,0,1.3,0.6,1.3,1.3v42.9C220.6,222.7,178.1,236.3,123.9,236.3z M29.7,169.6v35.7
				c0,7.2,9.9,14.4,27.1,19.8c17.9,5.6,41.8,8.6,67.1,8.6c51.1,0,94.2-13,94.2-28.4v-35.7c-9.9,13.8-47.7,23.8-94.2,23.8
				C77.4,193.3,39.6,183.4,29.7,169.6z"/>
		</g>
	</g>
	<g class="st2">
		<g>
			<defs>
				<path id="SVGID_31_" d="M219.3,207c0,16.4-42.7,29.7-95.5,29.7S28.4,223.4,28.4,207v42.9c0,16.4,42.7,29.7,95.5,29.7
					s95.5-13.3,95.5-29.7V207z"/>
			</defs>
			<clipPath id="SVGID_32_">
				<use xlink:href="#SVGID_31_"  style="overflow:visible;"/>
			</clipPath>
			<g class="st18">
				<g>
					<defs>
						<rect id="SVGID_33_" x="25.3" y="203.9" width="197" height="78.7"/>
					</defs>
					<clipPath id="SVGID_34_">
						<use xlink:href="#SVGID_33_"  style="overflow:visible;"/>
					</clipPath>
					<g class="st19">
						<g>
							<defs>
								<rect id="SVGID_35_" x="25.3" y="203.9" width="197" height="78.7"/>
							</defs>
							<clipPath id="SVGID_36_">
								<use xlink:href="#SVGID_35_"  style="overflow:visible;"/>
							</clipPath>
							<g class="st20">
								
									<image style="overflow:visible;enable-background:new    ;" width="674" height="269" xlink:href="2151869AFEC554.png"  transform="matrix(0.2928 0 0 0.2928 25.0746 203.9375)">
								</image>
							</g>
						</g>
					</g>
				</g>
			</g>
		</g>
		<g>
			<path class="st1" d="M123.9,280.9c-54.2,0-96.7-13.6-96.7-31V207c0-0.7,0.6-1.3,1.3-1.3s1.3,0.6,1.3,1.3
				c0,7.2,9.9,14.4,27.1,19.8c17.9,5.6,41.8,8.6,67.1,8.6c25.4,0,49.2-3.1,67.1-8.6c17.2-5.4,27.1-12.6,27.1-19.8
				c0-0.7,0.6-1.3,1.3-1.3c0.7,0,1.3,0.6,1.3,1.3v42.9C220.6,267.3,178.1,280.9,123.9,280.9z M29.7,214.2v35.7
				c0,7.2,9.9,14.4,27.1,19.8c17.9,5.6,41.8,8.6,67.1,8.6c25.4,0,49.2-3.1,67.1-8.6c17.2-5.4,27.1-12.6,27.1-19.8v-35.7
				c-9.9,13.8-47.7,23.8-94.2,23.8C77.4,238,39.6,228,29.7,214.2z"/>
		</g>
	</g>
	<g class="st2">
		<g>
			<defs>
				<path id="SVGID_37_" d="M427.7,161c0,16.4-42.7,29.7-95.5,29.7s-95.5-13.3-95.5-29.7v42.9c0,16.4,42.7,29.7,95.5,29.7
					s95.5-13.3,95.5-29.7V161z"/>
			</defs>
			<clipPath id="SVGID_38_">
				<use xlink:href="#SVGID_37_"  style="overflow:visible;"/>
			</clipPath>
			<g class="st21">
				<g>
					<defs>
						<rect id="SVGID_39_" x="233.7" y="157.9" width="197" height="78.7"/>
					</defs>
					<clipPath id="SVGID_40_">
						<use xlink:href="#SVGID_39_"  style="overflow:visible;"/>
					</clipPath>
					<g class="st22">
						<g>
							<defs>
								<rect id="SVGID_41_" x="233.7" y="157.9" width="197" height="78.7"/>
							</defs>
							<clipPath id="SVGID_42_">
								<use xlink:href="#SVGID_41_"  style="overflow:visible;"/>
							</clipPath>
							<g class="st23">
								
									<image style="overflow:visible;enable-background:new    ;" width="674" height="270" xlink:href="2151869AFEC55C.png"  transform="matrix(0.2928 0 0 0.2928 233.5286 157.6794)">
								</image>
							</g>
						</g>
					</g>
				</g>
			</g>
		</g>
		<g>
			<path class="st1" d="M332.3,234.9c-54.2,0-96.7-13.6-96.7-31V161c0-0.7,0.6-1.3,1.3-1.3s1.3,0.6,1.3,1.3
				c0,7.2,9.9,14.4,27.1,19.8c17.9,5.6,41.8,8.6,67.1,8.6c25.4,0,49.2-3.1,67.1-8.6c17.2-5.4,27.1-12.6,27.1-19.8
				c0-0.7,0.6-1.3,1.3-1.3s1.3,0.6,1.3,1.3v42.9C429,221.3,386.5,234.9,332.3,234.9z M238.1,168.2v35.7c0,7.2,9.9,14.4,27.1,19.8
				c17.9,5.6,41.8,8.6,67.1,8.6c25.4,0,49.2-3.1,67.1-8.6c17.2-5.4,27.1-12.6,27.1-19.8v-35.7c-9.9,13.8-47.7,23.8-94.2,23.8
				C285.8,191.9,248,182,238.1,168.2z"/>
		</g>
	</g>
	<g class="st2">
		<g>
			<defs>
				<path id="SVGID_43_" d="M427.7,205.6c0,16.4-42.7,29.7-95.5,29.7s-95.5-13.3-95.5-29.7v42.9c0,16.4,42.7,29.7,95.5,29.7
					s95.5-13.3,95.5-29.7V205.6z"/>
			</defs>
			<clipPath id="SVGID_44_">
				<use xlink:href="#SVGID_43_"  style="overflow:visible;"/>
			</clipPath>
			<g class="st24">
				<g>
					<defs>
						<rect id="SVGID_45_" x="233.7" y="202.5" width="197" height="78.7"/>
					</defs>
					<clipPath id="SVGID_46_">
						<use xlink:href="#SVGID_45_"  style="overflow:visible;"/>
					</clipPath>
					<g class="st25">
						<g>
							<defs>
								<rect id="SVGID_47_" x="233.7" y="202.5" width="197" height="78.7"/>
							</defs>
							<clipPath id="SVGID_48_">
								<use xlink:href="#SVGID_47_"  style="overflow:visible;"/>
							</clipPath>
							<g class="st26">
								
									<image style="overflow:visible;enable-background:new    ;" width="674" height="270" xlink:href="2151869AFEC55D.png"  transform="matrix(0.2928 0 0 0.2928 233.5286 202.4736)">
								</image>
							</g>
						</g>
					</g>
				</g>
			</g>
		</g>
		<g>
			<path class="st1" d="M332.3,279.5c-54.2,0-96.7-13.6-96.7-31v-42.9c0-0.7,0.6-1.3,1.3-1.3s1.3,0.6,1.3,1.3
				c0,7.2,9.9,14.4,27.1,19.8c17.9,5.6,41.8,8.6,67.1,8.6c25.4,0,49.2-3.1,67.1-8.6c17.2-5.4,27.1-12.6,27.1-19.8
				c0-0.7,0.6-1.3,1.3-1.3s1.3,0.6,1.3,1.3v42.9C429,265.9,386.5,279.5,332.3,279.5z M238.1,212.8v35.7c0,7.2,9.9,14.4,27.1,19.8
				c17.9,5.6,41.8,8.6,67.1,8.6c25.4,0,49.2-3.1,67.1-8.6c17.2-5.4,27.1-12.6,27.1-19.8v-35.7c-9.9,13.8-47.7,23.8-94.2,23.8
				C285.8,236.6,248,226.6,238.1,212.8z"/>
		</g>
	</g>
	<g class="st2">
		<g>
			<defs>
				<path id="SVGID_49_" d="M427.7,248.5c0,16.4-42.7,29.7-95.5,29.7s-95.5-13.3-95.5-29.7v42.9c0,16.4,42.7,29.7,95.5,29.7
					s95.5-13.3,95.5-29.7V248.5z"/>
			</defs>
			<clipPath id="SVGID_50_">
				<use xlink:href="#SVGID_49_"  style="overflow:visible;"/>
			</clipPath>
			<g class="st27">
				<g>
					<defs>
						<rect id="SVGID_51_" x="233.7" y="245.5" width="197" height="78.7"/>
					</defs>
					<clipPath id="SVGID_52_">
						<use xlink:href="#SVGID_51_"  style="overflow:visible;"/>
					</clipPath>
					<g class="st28">
						<g>
							<defs>
								<rect id="SVGID_53_" x="233.7" y="245.5" width="197" height="78.7"/>
							</defs>
							<clipPath id="SVGID_54_">
								<use xlink:href="#SVGID_53_"  style="overflow:visible;"/>
							</clipPath>
							<g class="st29">
								
									<image style="overflow:visible;enable-background:new    ;" width="674" height="270" xlink:href="2151869AFEC55F.png"  transform="matrix(0.2928 0 0 0.2928 233.5286 245.2184)">
								</image>
							</g>
						</g>
					</g>
				</g>
			</g>
		</g>
		<g>
			<path class="st1" d="M332.3,322.4c-54.2,0-96.7-13.6-96.7-31v-42.9c0-0.7,0.6-1.3,1.3-1.3s1.3,0.6,1.3,1.3
				c0,7.2,9.9,14.4,27.1,19.8c17.9,5.6,41.8,8.6,67.1,8.6c25.4,0,49.2-3.1,67.1-8.6c17.2-5.4,27.1-12.6,27.1-19.8
				c0-0.7,0.6-1.3,1.3-1.3s1.3,0.6,1.3,1.3v42.9C429,308.8,386.5,322.4,332.3,322.4z M238.1,255.7v35.7c0,7.2,9.9,14.4,27.1,19.8
				c17.9,5.6,41.8,8.6,67.1,8.6c25.4,0,49.2-3.1,67.1-8.6c17.2-5.4,27.1-12.6,27.1-19.8v-35.7c-9.9,13.8-47.7,23.8-94.2,23.8
				C285.8,279.5,248,269.5,238.1,255.7z"/>
		</g>
	</g>
	<g class="st2">
		<g>
			<defs>
				<circle id="SVGID_55_" cx="188.9" cy="340.4" r="104.3"/>
			</defs>
			<clipPath id="SVGID_56_">
				<use xlink:href="#SVGID_55_"  style="overflow:visible;"/>
			</clipPath>
			<g class="st30">
				<g>
					<defs>
						<rect id="SVGID_57_" x="81.6" y="233.1" width="214.7" height="214.7"/>
					</defs>
					<clipPath id="SVGID_58_">
						<use xlink:href="#SVGID_57_"  style="overflow:visible;"/>
					</clipPath>
					<g class="st31">
						<g>
							<defs>
								<rect id="SVGID_59_" x="81.6" y="233.1" width="214.7" height="214.7"/>
							</defs>
							<clipPath id="SVGID_60_">
								<use xlink:href="#SVGID_59_"  style="overflow:visible;"/>
							</clipPath>
							<g class="st32">
								
									<image style="overflow:visible;enable-background:new    ;" width="735" height="734" xlink:href="4D0C87466D2847C.png"  transform="matrix(0.2928 0 0 0.2928 81.2869 232.922)">
								</image>
							</g>
						</g>
					</g>
				</g>
			</g>
		</g>
		<g>
			<path class="st1" d="M188.9,445.4c-57.9,0-105-47.1-105-105s47.1-105,105-105s105,47.1,105,105S246.8,445.4,188.9,445.4z
				 M188.9,236.8c-57.1,0-103.6,46.5-103.6,103.6S131.8,444,188.9,444c57.1,0,103.6-46.5,103.6-103.6S246,236.8,188.9,236.8z"/>
		</g>
	</g>
	<g class="st33">
		<path class="st1" d="M188.9,222.2c-65.3,0-118.2,52.9-118.2,118.2s52.9,118.2,118.2,118.2s118.2-52.9,118.2-118.2
			S254.2,222.2,188.9,222.2z M188.9,430.8c-49.8,0-90.4-40.5-90.4-90.4s40.5-90.4,90.4-90.4s90.4,40.5,90.4,90.4
			S238.8,430.8,188.9,430.8L188.9,430.8z"/>
	</g>
	<g class="st34">
		<path class="st1" d="M218.6,360.7c0-11.3-6.6-23.3-25.2-23.3c-9.4,0-14.1-4.1-14.1-12.3c0-6.8,6.3-12.4,14.1-12.4
			c5.2,0,9.9,2.5,12.4,6.4c0.7,1,1.9,1.3,3,0.9l5.7-2.4c1.2-0.5,1.8-2,1.3-3.2c0-0.1-0.1-0.1-0.1-0.2c-3.6-6.2-9.7-10.5-16.7-11.8
			v-10.1c0-0.8-0.6-1.4-1.4-1.4h-8.1c-0.8,0-1.4,0.6-1.4,1.4v10.1c-11.2,2.3-19.6,11.6-19.6,22.7c0,11.3,6.6,23.3,25.1,23.3
			c9.4,0,14.2,4.2,14.2,12.4c0,6.8-6.3,12.3-14.1,12.3c-5.1,0-9.8-2.4-12.3-6.3c-0.7-1-2-1.4-3.1-0.9l-5.4,2.3
			c-1.3,0.5-1.9,2-1.4,3.4c0,0.1,0.1,0.2,0.1,0.3c3.6,6,9.6,10.3,16.6,11.6v9.7c0,1,0.8,1.9,1.9,1.9h7.2c1,0,1.9-0.8,1.9-1.9v-9.7
			C210.2,381.1,218.6,371.8,218.6,360.7z"/>
	</g>
	<g>
		<path class="st1" d="M214.1,358.2c0-11.3-6.6-23.3-25.2-23.3c-9.4,0-14.1-4.2-14.1-12.3c0-6.8,6.3-12.3,14.1-12.3
			c5.2,0,9.9,2.5,12.4,6.4c0.6,1,1.9,1.3,3,0.9l5.7-2.4c1.2-0.5,1.8-1.9,1.3-3.1c0-0.1-0.1-0.2-0.1-0.3c-3.5-6.1-9.6-10.4-16.7-11.8
			v-10.1c0-0.8-0.6-1.4-1.4-1.4h-8.1c-0.8,0-1.4,0.6-1.4,1.4v10.1c-11.2,2.3-19.6,11.6-19.6,22.7c0,11.3,6.6,23.3,25.1,23.3
			c9.4,0,14.2,4.2,14.2,12.3c0,6.8-6.3,12.3-14.1,12.3c-5.1,0-9.8-2.4-12.3-6.3c-0.7-1-2-1.4-3.1-0.9l-5.4,2.3
			c-1.3,0.5-1.9,2-1.4,3.3c0,0.1,0.1,0.2,0.2,0.3c3.6,6.1,9.6,10.3,16.6,11.6v9.7c0,1,0.8,1.9,1.9,1.9h7.2c1,0,1.9-0.8,1.9-1.9V381
			C205.6,378.7,214.1,369.4,214.1,358.2z"/>
	</g>
</g>
</svg>
