<?xml version="1.0" encoding="utf-8"?>
<!-- Generator: Adobe Illustrator 25.0.0, SVG Export Plug-In . SVG Version: 6.00 Build 0)  -->
<svg version="1.1" id="Capa_1" xmlns="http://www.w3.org/2000/svg" xmlns:xlink="http://www.w3.org/1999/xlink" x="0px" y="0px"
	 viewBox="0 0 461 462.3" style="enable-background:new 0 0 461 462.3;" xml:space="preserve">
<style type="text/css">
	.st0{opacity:0.5;}
	.st1{clip-path:url(#SVGID_2_);}
	.st2{clip-path:url(#SVGID_4_);}
	.st3{clip-path:url(#SVGID_6_);}
	.st4{fill:#FFC5B6;}
	.st5{clip-path:url(#SVGID_8_);}
	.st6{clip-path:url(#SVGID_10_);}
	.st7{clip-path:url(#SVGID_12_);}
	.st8{fill:#FFFFFF;}
	.st9{opacity:0.8;enable-background:new    ;}
	.st10{opacity:0.9;enable-background:new    ;}
</style>
<g id="Layer_2_2_">
	<g class="st0">
		<g>
			<g>
				<defs>
					<ellipse id="SVGID_1_" cx="230.6" cy="418.2" rx="129.3" ry="39.6"/>
				</defs>
				<clipPath id="SVGID_2_">
					<use xlink:href="#SVGID_1_"  style="overflow:visible;"/>
				</clipPath>
				<g class="st1">
					<g>
						<g>
							<defs>
								<rect id="SVGID_3_" x="98.3" y="375.6" width="264.6" height="85.1"/>
							</defs>
							<clipPath id="SVGID_4_">
								<use xlink:href="#SVGID_3_"  style="overflow:visible;"/>
							</clipPath>
							<g class="st2">
								<g>
									<g>
										<defs>
											<rect id="SVGID_5_" x="98.3" y="375.6" width="264.6" height="85.1"/>
										</defs>
										<clipPath id="SVGID_6_">
											<use xlink:href="#SVGID_5_"  style="overflow:visible;"/>
										</clipPath>
										<g class="st3">
										</g>
									</g>
								</g>
							</g>
						</g>
					</g>
				</g>
			</g>
		</g>
	</g>
	<g>
		<path class="st4" d="M296.2,369.5c-4.2,6-11.2,10.1-18.6,10.1c-9.9,0-34.5,0-43.4,0c-3.1,0-24.6,0-34.2,0
			c-3.1,0-13.9-0.4-16.5-0.4c-7.3,0-14.1-3.7-18-9.8c-33.9,7.1-56.2,19.3-56.2,33.5c0,22,54.4,39.6,121.4,39.6
			s121.4-17.8,121.4-39.6C352,388.9,329.6,376.6,296.2,369.5z"/>
	</g>
	<g class="st0">
		<g>
			<g>
				<defs>
					<path id="SVGID_7_" d="M225.2,9.8C166.9,59.8,87.7,63.7,61.9,63.4c-4.6,0-8.2,3.7-8.2,8.1c0,0.1,0,0.1,0,0.3
						C59.1,266.9,170.6,378,188.5,394.6c1.6,1.4,3.5,2.2,5.5,2.2H267c2.1,0,4.1-0.8,5.5-2.2C290.4,378,401.9,267.1,407.3,71.8
						c0.1-4.6-3.4-8.2-8-8.4c-0.1,0-0.1,0-0.3,0c-25.7,0.1-105-3.7-163.3-53.6C232.8,7.2,228.2,7.2,225.2,9.8z"/>
				</defs>
				<clipPath id="SVGID_8_">
					<use xlink:href="#SVGID_7_"  style="overflow:visible;"/>
				</clipPath>
				<g class="st5">
					<g>
						<g>
							<defs>
								<rect id="SVGID_9_" x="50.7" y="4.9" width="359.6" height="394.9"/>
							</defs>
							<clipPath id="SVGID_10_">
								<use xlink:href="#SVGID_9_"  style="overflow:visible;"/>
							</clipPath>
							<g class="st6">
								<g>
									<g>
										<defs>
											<rect id="SVGID_11_" x="50.7" y="4.9" width="359.6" height="394.9"/>
										</defs>
										<clipPath id="SVGID_12_">
											<use xlink:href="#SVGID_11_"  style="overflow:visible;"/>
										</clipPath>
										<g class="st7">
										</g>
									</g>
								</g>
							</g>
						</g>
					</g>
				</g>
			</g>
		</g>
		<g>
			<path class="st8" d="M267,398.8H194c-2.5,0-4.9-1-6.8-2.7c-9.2-8.5-41.6-40.6-72.5-94.9C75.2,231.5,54,154.4,51.8,71.8l0-0.3
				c0-5.6,4.6-10.1,10.2-10.1c23.2,0.2,103.3-2.9,162-53.1c3.7-3.2,9.4-3.3,13.1,0c56.5,48.4,132.1,53.2,162,53.1h0.3
				c2.8,0.1,5.3,1.2,7.2,3.1c1.9,1.9,2.8,4.5,2.8,7.3c-2.3,82.6-23.4,159.8-62.9,229.3c-30.8,54.3-63.3,86.4-72.5,94.9
				C272.1,397.8,269.7,398.8,267,398.8z M61.9,65.4c-3.4,0-6.3,2.8-6.3,6.1v0.3c2.2,81.9,23.3,158.4,62.4,227.4
				c30.6,53.9,62.6,85.6,71.7,94c1.2,1.1,2.7,1.7,4.2,1.7H267c1.6,0,3-0.6,4.1-1.6c9.2-8.5,41.2-40.2,71.8-94
				c39.2-69,60.2-145.6,62.4-227.5c0-1.7-0.5-3.3-1.7-4.4c-1.1-1.2-2.7-1.9-4.4-1.9l-0.2,0c-30.3,0.1-107-4.8-164.5-54.1
				c-2.3-2-5.7-2-8,0l0,0C166.8,62.4,85.4,65.6,61.9,65.4z"/>
		</g>
	</g>
	<g class="st9">
		<polygon class="st8" points="194.6,171.8 176.8,230.5 198.4,223.9 211.6,241.4 229.5,182.4 		"/>
	</g>
	<g class="st9">
		<polygon class="st8" points="266.5,171.8 284.2,230.5 262.7,223.9 249.4,241.4 231.6,182.4 		"/>
	</g>
	<g>
		<circle class="st8" cx="230.6" cy="140.5" r="63"/>
	</g>
	<g class="st10">
		<path class="st8" d="M184.4,319.5h92.3c1.6,0,2.9,1.3,2.9,2.9v3.7c0,1.6-1.3,2.9-2.9,2.9h-92.3c-1.6,0-2.9-1.3-2.9-2.9v-3.7
			C181.4,320.8,182.7,319.5,184.4,319.5z"/>
	</g>
	<g class="st10">
		<path class="st8" d="M168.5,286.1h77c1.4,0,2.6,1.2,2.6,2.6v4.1c0,1.4-1.2,2.6-2.6,2.6h-77c-1.4,0-2.6-1.2-2.6-2.6v-4.1
			C165.9,287.3,167,286.1,168.5,286.1z"/>
	</g>
	<g class="st10">
		<path class="st8" d="M258,286.1h35.4c1,0,1.8,0.8,1.8,1.8v5.8c0,1-0.8,1.8-1.8,1.8H258c-1,0-1.8-0.8-1.8-1.8V288
			C256.1,286.9,257,286.1,258,286.1z"/>
	</g>
</g>
</svg>
