<?xml version="1.0" encoding="utf-8"?>
<!-- Generator: Adobe Illustrator 24.1.2, SVG Export Plug-In . SVG Version: 6.00 Build 0)  -->
<svg version="1.1" id="Layer_1" xmlns="http://www.w3.org/2000/svg" xmlns:xlink="http://www.w3.org/1999/xlink" x="0px" y="0px"
	 viewBox="0 0 973.7 133.2" style="enable-background:new 0 0 973.7 133.2;" xml:space="preserve">
<style type="text/css">
	.st0{fill:url(#SVGID_1_);}
	.st1{fill:url(#SVGID_2_);}
	.st2{fill:#FFFFFF;}
</style>
<linearGradient id="SVGID_1_" gradientUnits="userSpaceOnUse" x1="0.84" y1="211.68" x2="87.17" y2="298.01" gradientTransform="matrix(1 0 0 -1 0 298)">
	<stop  offset="6.000000e-02" style="stop-color:#4D79A6"/>
	<stop  offset="0.36" style="stop-color:#5788A9"/>
	<stop  offset="0.92" style="stop-color:#72B0B1"/>
	<stop  offset="1" style="stop-color:#76B6B2"/>
</linearGradient>
<polygon class="st0" points="78.9,14.3 72.4,1.4 46.4,1.4 46.4,1.4 46.4,14.3 46.4,54.3 0.4,54.3 0.4,54.4 0,54.3 0,80.3 12.9,86.7 
	12.9,67.3 59.3,67.3 59.3,60.9 59.3,54.3 59.3,14.3 "/>
<linearGradient id="SVGID_2_" gradientUnits="userSpaceOnUse" x1="52.7" y1="171.23" x2="128.48" y2="247.01" gradientTransform="matrix(1 0 0 -1 0 298)">
	<stop  offset="0" style="stop-color:#F18F2C"/>
	<stop  offset="1" style="stop-color:#E05658"/>
</linearGradient>
<polygon class="st1" points="118.9,47.5 118.9,67.4 72.7,67.4 72.7,73.9 72.7,80.3 72.7,120.3 53,120.3 59.2,133.2 72.7,133.2 
	72.7,133.2 85.6,133.2 85.6,133.2 85.7,133.2 85.7,120.3 85.6,120.3 85.6,80.3 118.9,80.3 131.8,80.3 131.8,67.4 131.8,54.3 "/>
<path class="st2" d="M252.5,108.2c-6.9,10.1-17.2,15.2-30.8,15.2c-12.4,0-22.5-4.3-30.3-12.9c-7.6-8.5-11.4-19-11.4-31.5
	s3.8-23,11.4-31.5c7.8-8.6,18.2-12.9,31.2-12.9s23,5.1,30,15.3v-14h12.9V122h-13V108.2z M223.4,111.7c9.3,0,16.7-3.2,22.1-9.6
	c5.2-6.1,7.8-13.8,7.8-23.1s-2.6-17-7.8-23.1c-5.4-6.4-12.8-9.6-22.1-9.7c-9.2,0-16.7,3.2-22.4,9.7c-5.4,6.1-8.1,13.8-8.1,23.1
	s2.7,17,8.1,23.1C206.7,108.5,214.2,111.7,223.4,111.7z"/>
<path class="st2" d="M367.8,34.5v12.9h-1.5c-9.3,0-16.9,3.7-22.8,11.2c-5.5,7.1-8.3,15.6-8.3,25.5V122h-12.9V35.9h12.9v21.2
	c2.8-9,8.7-15.6,17.9-19.8c4.3-2,9-2.9,13.8-2.8L367.8,34.5z"/>
<path class="st2" d="M425.6,122V47.2H408V35.9h17.6V5h12.9v30.8h19.8v11.4h-19.9V122H425.6z"/>
<path class="st2" d="M542.6,34.5c12.9,0,23.3,4.3,31.4,12.9c7.6,8.3,11.4,18.8,11.4,31.5s-3.8,23.3-11.4,31.5
	c-8.1,8.6-18.5,12.9-31.4,12.9s-23.3-4.3-31.4-12.9c-7.6-8.3-11.4-18.8-11.4-31.5s3.8-23.3,11.4-31.5
	C519.2,38.8,529.7,34.5,542.6,34.5z M542.6,111.7c9.3,0,16.7-3.2,22.1-9.6c5.2-6.1,7.8-13.8,7.8-23.1c0-9.3-2.6-17-7.8-23.1
	c-5.4-6.4-12.8-9.6-22.1-9.7c-9.3,0-16.7,3.2-22.1,9.7c-5.2,6.1-7.8,13.8-7.8,23.1c0,9.3,2.6,17,7.8,23.1
	C525.9,108.5,533.3,111.7,542.6,111.7z"/>
<path class="st2" d="M672.8,12.2c-6.1,0-10.7,1.3-13.7,4c-3,2.7-4.6,7-4.6,13v6.6h20v11.4h-20V122h-13V47.2h-14.8V35.9h14.8v-7.6
	c0-9.4,2.8-16.5,8.5-21.2S663.5,0,673.5,0h1v12.2H672.8z"/>
<path class="st2" d="M795.4,35.9L761.8,122h-15.2l-33.8-86.2h14.1l27.2,72.4l27.1-72.4H795.4z"/>
<path class="st2" d="M841.9,35.9h12.9V122h-12.9V35.9z"/>
<path class="st2" d="M922,110h51.7V122h-67.9v-12.2l51.5-62h-50.8V35.9h67.2v12.1L922,110z"/>
</svg>
